HIERARCHY
ROOT Hips
{
	OFFSET 0.000000 100.481300 0.000000
	CHANNELS 6 Xposition Yposition Zposition Xrotation Yrotation Zrotation
	JOINT Spine
	{
		OFFSET -0.279200 12.230698 -2.892100
		CHANNELS 3 Xrotation Yrotation Zrotation
		JOINT Spine1
		{
			OFFSET -0.325700 14.269203 -3.374200
			CHANNELS 3 Xrotation Yrotation Zrotation
			JOINT Spine2
			{
				OFFSET -0.372300 16.307602 -0.352600
				CHANNELS 3 Xrotation Yrotation Zrotation
				JOINT Neck
				{
					OFFSET -0.418800 17.814194 8.416900
					CHANNELS 3 Xrotation Yrotation Zrotation
					JOINT Head
					{
						OFFSET 0.000000 7.031097 3.806800
						CHANNELS 3 Xrotation Yrotation Zrotation
						JOINT HeadTop_End
						{
							OFFSET 0.000000 24.646606 12.978600
							CHANNELS 3 Xrotation Yrotation Zrotation
							End Site
							{
								OFFSET 0.000000 27.854965 0.000000
							}
						}
					}
				}
				JOINT LeftShoulder
				{
					OFFSET 16.952999 14.495407 -7.737500
					CHANNELS 3 Xrotation Yrotation Zrotation
					JOINT LeftArm
					{
						OFFSET 9.308998 -2.777710 0.208600
						CHANNELS 3 Xrotation Yrotation Zrotation
						JOINT LeftForeArm
						{
							OFFSET 29.972298 0.000000 0.000000
							CHANNELS 3 Xrotation Yrotation Zrotation
							JOINT LeftHand
							{
								OFFSET 26.026505 0.000000 0.000000
								CHANNELS 3 Xrotation Yrotation Zrotation
								JOINT LeftHandThumb1
								{
									OFFSET 12.240501 -7.147949 9.207150
									CHANNELS 3 Xrotation Yrotation Zrotation
									JOINT LeftHandThumb2
									{
										OFFSET 4.138618 -2.389435 2.389433
										CHANNELS 3 Xrotation Yrotation Zrotation
										JOINT LeftHandThumb3
										{
											OFFSET 2.726913 -1.574387 1.574386
											CHANNELS 3 Xrotation Yrotation Zrotation
											JOINT LeftHandThumb4
											{
												OFFSET 3.941010 -2.275345 2.275342
												CHANNELS 3 Xrotation Yrotation Zrotation
												End Site
												{
													OFFSET -0.005798 5.087799 0.009903
												}
											}
										}
									}
								}
								JOINT LeftHandIndex1
								{
									OFFSET 24.424698 -1.985611 5.953459
									CHANNELS 3 Xrotation Yrotation Zrotation
									JOINT LeftHandIndex2
									{
										OFFSET 6.426697 0.000000 0.000000
										CHANNELS 3 Xrotation Yrotation Zrotation
										JOINT LeftHandIndex3
										{
											OFFSET 5.337898 0.000000 0.000000
											CHANNELS 3 Xrotation Yrotation Zrotation
											JOINT LeftHandIndex4
											{
												OFFSET 4.409401 0.000000 0.000000
												CHANNELS 3 Xrotation Yrotation Zrotation
												End Site
												{
													OFFSET 0.000000 4.409363 0.014373
												}
											}
										}
									}
								}
								JOINT LeftHandMiddle1
								{
									OFFSET 23.810104 0.000000 0.000000
									CHANNELS 3 Xrotation Yrotation Zrotation
									JOINT LeftHandMiddle2
									{
										OFFSET 7.176498 0.000000 0.000000
										CHANNELS 3 Xrotation Yrotation Zrotation
										JOINT LeftHandMiddle3
										{
											OFFSET 6.774902 0.000000 0.000000
											CHANNELS 3 Xrotation Yrotation Zrotation
											JOINT LeftHandMiddle4
											{
												OFFSET 5.403328 0.000000 0.000000
												CHANNELS 3 Xrotation Yrotation Zrotation
												End Site
												{
													OFFSET -0.027702 5.403244 0.017414
												}
											}
										}
									}
								}
								JOINT LeftHandRing1
								{
									OFFSET 22.908401 -0.839279 -6.020567
									CHANNELS 3 Xrotation Yrotation Zrotation
									JOINT LeftHandRing2
									{
										OFFSET 6.337502 0.000000 0.000000
										CHANNELS 3 Xrotation Yrotation Zrotation
										JOINT LeftHandRing3
										{
											OFFSET 5.779297 0.000000 0.000000
											CHANNELS 3 Xrotation Yrotation Zrotation
											JOINT LeftHandRing4
											{
												OFFSET 4.965698 0.000000 0.000000
												CHANNELS 3 Xrotation Yrotation Zrotation
												End Site
												{
													OFFSET 0.000000 4.965668 0.016186
												}
											}
										}
									}
								}
								JOINT LeftHandPinky1
								{
									OFFSET 20.037003 -1.530319 -10.950146
									CHANNELS 3 Xrotation Yrotation Zrotation
									JOINT LeftHandPinky2
									{
										OFFSET 5.254700 0.000000 0.000000
										CHANNELS 3 Xrotation Yrotation Zrotation
										JOINT LeftHandPinky3
										{
											OFFSET 4.810204 0.000000 0.000000
											CHANNELS 3 Xrotation Yrotation Zrotation
											JOINT LeftHandPinky4
											{
												OFFSET 3.647202 0.000000 0.000000
												CHANNELS 3 Xrotation Yrotation Zrotation
												End Site
												{
													OFFSET 0.000000 3.647186 0.011889
												}
											}
										}
									}
								}
							}
						}
					}
				}
				JOINT RightShoulder
				{
					OFFSET -15.141001 14.495407 -7.737500
					CHANNELS 3 Xrotation Yrotation Zrotation
					JOINT RightArm
					{
						OFFSET -9.308998 -2.777710 0.208500
						CHANNELS 3 Xrotation Yrotation Zrotation
						JOINT RightForeArm
						{
							OFFSET -29.972300 0.000000 0.000000
							CHANNELS 3 Xrotation Yrotation Zrotation
							JOINT RightHand
							{
								OFFSET -26.026505 0.000000 0.000000
								CHANNELS 3 Xrotation Yrotation Zrotation
								JOINT RightHandThumb1
								{
									OFFSET -12.240601 -7.148026 9.207092
									CHANNELS 3 Xrotation Yrotation Zrotation
									JOINT RightHandThumb2
									{
										OFFSET -4.138618 -2.389435 2.389433
										CHANNELS 3 Xrotation Yrotation Zrotation
										JOINT RightHandThumb3
										{
											OFFSET -2.726974 -1.574417 1.574421
											CHANNELS 3 Xrotation Yrotation Zrotation
											JOINT RightHandThumb4
											{
												OFFSET -3.941010 -2.275345 2.275343
												CHANNELS 3 Xrotation Yrotation Zrotation
												End Site
												{
													OFFSET 0.005814 5.087799 0.009927
												}
											}
										}
									}
								}
								JOINT RightHandIndex1
								{
									OFFSET -24.424698 -1.985657 5.953444
									CHANNELS 3 Xrotation Yrotation Zrotation
									JOINT RightHandIndex2
									{
										OFFSET -6.426697 0.000000 0.000000
										CHANNELS 3 Xrotation Yrotation Zrotation
										JOINT RightHandIndex3
										{
											OFFSET -5.337898 0.000000 0.000000
											CHANNELS 3 Xrotation Yrotation Zrotation
											JOINT RightHandIndex4
											{
												OFFSET -4.409401 0.000000 0.000000
												CHANNELS 3 Xrotation Yrotation Zrotation
												End Site
												{
													OFFSET 0.000000 4.409363 0.014408
												}
											}
										}
									}
								}
								JOINT RightHandMiddle1
								{
									OFFSET -23.810097 0.000000 0.000000
									CHANNELS 3 Xrotation Yrotation Zrotation
									JOINT RightHandMiddle2
									{
										OFFSET -7.176498 0.000000 0.000000
										CHANNELS 3 Xrotation Yrotation Zrotation
										JOINT RightHandMiddle3
										{
											OFFSET -6.774902 0.000000 0.000000
											CHANNELS 3 Xrotation Yrotation Zrotation
											JOINT RightHandMiddle4
											{
												OFFSET -5.403328 0.000000 0.000000
												CHANNELS 3 Xrotation Yrotation Zrotation
												End Site
												{
													OFFSET 0.027702 5.403244 0.017457
												}
											}
										}
									}
								}
								JOINT RightHandRing1
								{
									OFFSET -22.908302 -0.839325 -6.020576
									CHANNELS 3 Xrotation Yrotation Zrotation
									JOINT RightHandRing2
									{
										OFFSET -6.337502 0.000000 0.000000
										CHANNELS 3 Xrotation Yrotation Zrotation
										JOINT RightHandRing3
										{
											OFFSET -5.779297 0.000000 0.000000
											CHANNELS 3 Xrotation Yrotation Zrotation
											JOINT RightHandRing4
											{
												OFFSET -4.965698 0.000000 0.000000
												CHANNELS 3 Xrotation Yrotation Zrotation
												End Site
												{
													OFFSET 0.000000 4.965668 0.016226
												}
											}
										}
									}
								}
								JOINT RightHandPinky1
								{
									OFFSET -20.037003 -1.530334 -10.950259
									CHANNELS 3 Xrotation Yrotation Zrotation
									JOINT RightHandPinky2
									{
										OFFSET -5.254700 0.000000 0.000000
										CHANNELS 3 Xrotation Yrotation Zrotation
										JOINT RightHandPinky3
										{
											OFFSET -4.810204 0.000000 0.000000
											CHANNELS 3 Xrotation Yrotation Zrotation
											JOINT RightHandPinky4
											{
												OFFSET -3.647202 0.000000 0.000000
												CHANNELS 3 Xrotation Yrotation Zrotation
												End Site
												{
													OFFSET 0.000000 3.647186 0.011917
												}
											}
										}
									}
								}
							}
						}
					}
				}
			}
		}
	}
	JOINT LeftUpLeg
	{
		OFFSET 15.427100 -6.655098 0.678600
		CHANNELS 3 Xrotation Yrotation Zrotation
		JOINT LeftLeg
		{
			OFFSET 4.081073 -39.591068 13.024000
			CHANNELS 3 Xrotation Yrotation Zrotation
			JOINT LeftFoot
			{
				OFFSET -4.081074 -37.707932 -15.979700
				CHANNELS 3 Xrotation Yrotation Zrotation
				JOINT LeftToeBase
				{
					OFFSET 5.346399 -15.068900 20.645000
					CHANNELS 3 Xrotation Yrotation Zrotation
					JOINT LeftToe_End
					{
						OFFSET 2.754700 0.931300 11.300900
						CHANNELS 3 Xrotation Yrotation Zrotation
						End Site
						{
							OFFSET 0.000000 11.669021 0.000000
						}
					}
				}
			}
		}
	}
	JOINT RightUpLeg
	{
		OFFSET -15.569500 -6.655098 0.678600
		CHANNELS 3 Xrotation Yrotation Zrotation
		JOINT RightLeg
		{
			OFFSET -4.081825 -39.591045 13.023800
			CHANNELS 3 Xrotation Yrotation Zrotation
			JOINT RightFoot
			{
				OFFSET 4.081824 -37.707954 -15.979600
				CHANNELS 3 Xrotation Yrotation Zrotation
				JOINT RightToeBase
				{
					OFFSET -5.346400 -15.068900 20.645000
					CHANNELS 3 Xrotation Yrotation Zrotation
					JOINT RightToe_End
					{
						OFFSET -2.754700 0.931300 11.300900
						CHANNELS 3 Xrotation Yrotation Zrotation
						End Site
						{
							OFFSET 0.000000 11.669021 0.000000
						}
					}
				}
			}
		}
	}
}
MOTION
Frames: 4
Frame Time: 0.033333
-7.680775 82.149185 -0.203872 -2.623188 0.376845 2.450794 18.491573 1.323522 -1.683033 6.161691 0.335882 -2.394399 6.168628 0.270842 -2.386663 -0.087979 2.217391 -2.444846 -3.141746 7.538792 1.443860 0.000000 -0.000001 0.000000 4.310279 -14.619374 -5.807929 -6.507693 4.056001 -38.856417 0.000987 -87.844204 0.001022 -38.892105 -10.809288 2.656065 -1.627875 3.481534 7.547006 4.622409 16.314692 1.369016 -0.194050 5.748425 2.950056 0.000000 0.000002 -0.000000 0.034789 0.692670 -5.749532 0.034784 0.692659 -5.749535 0.008685 0.346766 -2.874656 -0.000001 -0.000001 -0.000001 0.034598 0.690755 -5.733555 0.034972 0.694566 -5.765514 0.008691 0.346762 -2.874655 0.000000 -0.000001 0.000001 0.034789 0.692670 -5.749532 0.034784 0.692659 -5.749533 0.008683 0.346770 -2.874656 0.000001 0.000001 0.000002 0.423972 4.728276 -5.257535 0.022939 -3.361931 -6.257724 0.008684 0.346764 -2.874662 -0.000000 0.000001 0.000000 7.419078 22.761561 -3.090362 -33.276159 -16.456417 30.207082 0.000011 71.127794 -0.000014 -22.587552 0.010063 -4.595765 -1.846989 -3.340670 -6.548763 5.119888 -13.941095 -0.598916 -1.023827 -2.509181 -2.381912 -0.000000 0.000002 0.000002 0.035035 -0.698649 5.742680 -0.000008 0.000012 0.000006 -0.000001 -0.000002 0.000000 -0.000001 -0.000001 0.000001 0.035036 -0.698649 5.742680 -0.000013 0.000005 0.000024 0.000002 0.000002 -0.000002 -0.000002 -0.000000 0.000000 0.035044 -0.698649 5.742680 -0.000014 0.000009 0.000006 0.000002 0.000001 -0.000000 0.000001 0.000001 0.000000 0.035035 -0.698649 5.742680 -0.000013 0.000004 0.000023 0.000003 0.000007 -0.000003 0.000003 -0.000002 -0.000001 -39.729704 -1.543813 23.232339 73.927372 7.687579 -7.618193 -19.206053 13.871836 5.053777 -0.309375 0.000012 0.000002 0.000000 0.000001 -0.000001 -22.014108 -3.870523 -20.759252 45.823866 -3.115058 0.938942 -17.824325 -6.799223 15.131994 -0.006545 0.000003 -0.000002 0.000000 -0.000000 0.000000 
-7.727386 83.251869 4.273246 -3.175783 -0.000965 2.643889 17.462186 4.263693 -2.498339 5.996393 1.253761 -2.836038 6.021616 1.182155 -2.822747 1.015307 1.690423 -2.950659 1.040185 3.724406 3.414958 -0.000000 0.000000 0.000000 3.942524 -13.250324 -6.460772 -6.043798 4.500652 -38.857267 0.001180 -87.449364 0.001219 -39.322809 -13.031802 5.043726 -1.627876 3.481535 7.547006 4.622409 16.314696 1.369017 -0.194051 5.748422 2.950054 0.000001 0.000002 0.000000 0.034789 0.692673 -5.749532 0.034784 0.692660 -5.749535 0.008686 0.346766 -2.874658 0.000000 0.000000 -0.000001 0.034598 0.690756 -5.733554 0.034972 0.694568 -5.765514 0.008691 0.346762 -2.874656 0.000000 0.000000 -0.000001 0.034789 0.692673 -5.749532 0.034784 0.692660 -5.749535 0.008684 0.346768 -2.874657 -0.000000 -0.000000 -0.000001 0.423972 4.728277 -5.257534 0.022940 -3.361933 -6.257723 0.008684 0.346764 -2.874662 0.000000 -0.000000 -0.000000 7.436444 22.654732 -3.351347 -30.505592 -18.077566 30.977087 -0.000015 71.398822 0.000029 -22.881511 0.186613 -4.509323 -1.846985 -3.340675 -6.548763 5.119883 -13.941095 -0.598918 -1.023825 -2.509184 -2.381915 -0.000001 0.000003 0.000003 0.035042 -0.698649 5.742682 -0.000004 0.000008 0.000005 -0.000006 -0.000001 -0.000001 0.000001 -0.000002 0.000000 0.035042 -0.698649 5.742682 -0.000011 0.000006 0.000022 0.000013 0.000000 -0.000002 -0.000001 0.000001 -0.000000 0.035050 -0.698647 5.742682 -0.000016 0.000009 0.000007 -0.000005 -0.000000 -0.000001 0.000002 -0.000000 -0.000000 0.035042 -0.698649 5.742682 -0.000011 0.000006 0.000022 0.000006 0.000003 -0.000004 0.000002 -0.000001 -0.000001 -40.245360 -2.351840 23.257610 65.778205 7.834510 -9.061115 -18.469962 12.714545 4.825296 -0.486705 0.000034 0.000009 -0.000000 0.000002 -0.000000 -16.334840 -5.109868 -20.375060 43.154033 -3.029017 0.224352 -20.369221 -7.457042 16.000406 -0.010142 -0.000002 -0.000005 0.000000 -0.000000 0.000000 
-7.714339 84.078117 8.545610 -3.817191 -0.156868 2.688505 16.603915 6.812413 -2.965959 5.943701 2.038964 -3.114056 5.988800 1.965173 -3.091149 1.631393 1.253779 -3.389668 4.959521 0.511569 5.322255 0.000001 0.000000 -0.000000 3.589937 -11.993965 -7.429859 -6.124061 6.048385 -38.484708 -0.000464 -86.838656 -0.000545 -38.780899 -15.167010 4.722351 -1.627876 3.481538 7.547006 4.622409 16.314694 1.369017 -0.194050 5.748419 2.950055 0.000000 0.000002 0.000000 0.034789 0.692673 -5.749531 0.034784 0.692659 -5.749534 0.008685 0.346768 -2.874657 0.000000 -0.000000 0.000000 0.034599 0.690755 -5.733554 0.034972 0.694567 -5.765513 0.008691 0.346762 -2.874656 0.000000 -0.000000 -0.000000 0.034789 0.692673 -5.749532 0.034784 0.692659 -5.749533 0.008684 0.346769 -2.874658 -0.000000 -0.000001 0.000000 0.423972 4.728279 -5.257534 0.022940 -3.361931 -6.257722 0.008684 0.346765 -2.874663 -0.000000 0.000000 0.000000 7.292172 22.225483 -3.272384 -28.225577 -18.830601 32.057896 0.000038 71.841016 -0.000031 -22.943545 0.269334 -4.461994 -1.846989 -3.340672 -6.548763 5.119885 -13.941097 -0.598919 -1.023823 -2.509182 -2.381913 -0.000003 0.000003 -0.000002 0.035037 -0.698648 5.742680 -0.000006 0.000010 0.000006 0.000005 0.000000 0.000000 0.000001 -0.000001 0.000002 0.035038 -0.698648 5.742680 -0.000013 0.000006 0.000024 0.000011 0.000002 -0.000004 0.000001 -0.000000 -0.000000 0.035046 -0.698647 5.742682 -0.000013 0.000011 0.000004 -0.000003 -0.000001 0.000000 -0.000003 0.000001 0.000000 0.035037 -0.698648 5.742680 -0.000011 0.000006 0.000024 0.000004 0.000006 -0.000005 0.000004 0.000000 0.000000 -39.870809 -3.094516 22.970425 56.254398 8.043799 -9.702246 -17.223485 11.593380 4.412820 -0.684299 0.000012 0.000007 0.000000 0.000005 -0.000001 -10.615296 -6.264934 -19.922991 40.257483 -3.013955 -0.307789 -22.454525 -8.408583 16.835609 -0.021761 0.000010 -0.000003 -0.000000 -0.000000 0.000000 
-7.744202 84.488174 12.501444 -4.503940 -0.139737 2.817589 15.948432 8.726482 -3.367823 6.002130 2.626655 -3.320290 6.066243 2.551857 -3.283812 1.755405 0.965047 -3.780975 7.795006 -1.810899 7.132645 -0.000001 -0.000000 0.000000 3.167191 -10.304237 -8.517202 -6.763582 8.250341 -37.967707 0.000665 -86.269592 0.000707 -38.476710 -16.321219 2.824502 -1.627876 3.481537 7.547009 4.622409 16.314697 1.369017 -0.194051 5.748419 2.950055 -0.000000 0.000001 -0.000000 0.034789 0.692673 -5.749531 0.034784 0.692659 -5.749535 0.008685 0.346767 -2.874657 0.000000 0.000000 -0.000000 0.034598 0.690756 -5.733553 0.034972 0.694570 -5.765514 0.008691 0.346764 -2.874655 -0.000000 0.000000 0.000000 0.034789 0.692673 -5.749531 0.034784 0.692659 -5.749533 0.008684 0.346768 -2.874658 0.000000 -0.000000 0.000000 0.423972 4.728279 -5.257531 0.022940 -3.361931 -6.257720 0.008684 0.346764 -2.874662 0.000000 0.000000 0.000000 6.982248 21.529458 -2.706611 -26.743396 -18.417971 33.188507 -0.000003 72.320222 -0.000006 -22.860257 0.216773 -4.464150 -1.846991 -3.340672 -6.548760 5.119885 -13.941095 -0.598918 -1.023829 -2.509178 -2.381913 0.000001 0.000003 0.000001 0.035039 -0.698649 5.742682 -0.000005 0.000011 0.000003 0.000001 -0.000001 0.000000 0.000001 -0.000002 0.000001 0.035040 -0.698649 5.742682 -0.000012 0.000006 0.000024 0.000015 0.000000 -0.000003 -0.000001 -0.000002 0.000001 0.035046 -0.698648 5.742681 -0.000016 0.000010 0.000005 0.000004 -0.000000 0.000000 0.000001 -0.000001 0.000001 0.035039 -0.698649 5.742682 -0.000012 0.000007 0.000023 0.000004 0.000005 -0.000003 -0.000001 0.000000 -0.000001 -38.822543 -3.556590 22.133955 45.585403 8.288079 -9.267629 -15.797184 11.185007 4.000552 -0.899347 0.000000 0.000000 -0.000000 -0.000004 -0.000003 -5.203703 -7.111121 -19.670484 37.734350 -3.205831 -0.487361 -24.352775 -9.538062 17.587293 -0.044465 -0.000007 0.000000 -0.000000 0.000002 0.000000 
